<svg xmlns="http://www.w3.org/2000/svg" width="100%" height="auto" viewBox="0 0 1024 1024" version="1.1">
	<path d="M 459 12.500 C 408.157 17.682, 371.348 26.692, 321 46.279 C 304.383 52.744, 270.139 69.715, 253 79.980 C 227.983 94.963, 201.460 113.959, 180.500 131.906 C 152.204 156.134, 116.897 195.477, 98.369 223.426 C 96.241 226.635, 92.384 232.465, 89.798 236.381 C 72.138 263.120, 52.241 306.471, 39.715 345.500 C 28.870 379.293, 21.586 426.479, 20.291 471.334 C 19.429 501.176, 23.264 543.524, 29.373 571.628 C 31.270 580.358, 33.124 589.075, 33.493 591 C 34.678 597.188, 41.039 618.173, 45.163 629.500 C 50.657 644.591, 59.105 666.285, 59.961 667.500 C 60.348 668.050, 61.243 670.075, 61.950 672 C 63.305 675.690, 77.143 704.143, 78 705 C 78.275 705.275, 80.267 708.875, 82.428 713 C 86.470 720.720, 98.195 739.258, 106.687 751.356 C 109.334 755.127, 113.857 761.587, 116.738 765.711 C 122.424 773.852, 129.087 781.631, 144.355 797.960 C 171.270 826.746, 188.867 841.667, 231.500 871.856 C 240.518 878.242, 264.336 892.910, 265.010 892.494 C 265.373 892.269, 262.932 889.252, 259.585 885.789 C 253.254 879.237, 246.536 868.379, 242.255 857.779 C 236.022 842.349, 234.050 819.183, 237.466 801.535 L 239.202 792.570 236.740 790.535 C 192.159 753.676, 166.369 724.434, 140.934 681.905 C 128.985 661.925, 122.835 649.364, 110.379 619.500 C 98.852 591.864, 89.528 553.772, 84.433 513.500 C 81.985 494.147, 81.331 439.352, 83.359 423.500 C 86.972 395.253, 88.124 387.629, 89.965 379.792 C 91.036 375.232, 92.110 370.375, 92.352 369 C 94.397 357.362, 100.962 335.544, 108.449 315.500 C 119.749 285.249, 148.055 235.625, 169.344 208.741 C 201.269 168.429, 233.052 139.315, 276.520 110.569 C 305.528 91.386, 337.900 74.560, 368 63.021 C 372.675 61.229, 377.850 59.179, 379.500 58.465 C 383.443 56.760, 405.122 49.839, 416.500 46.653 C 450.537 37.121, 474.957 32.624, 513.500 28.792 C 532.760 26.878, 603.689 27.257, 624.500 29.386 C 633.300 30.287, 642.898 31.507, 645.829 32.099 C 648.760 32.691, 651.365 32.969, 651.616 32.717 C 652.530 31.803, 637.118 26.753, 620.500 22.520 C 605.934 18.809, 589.830 15.711, 578.500 14.439 C 576.850 14.254, 572.125 13.601, 568 12.987 C 555.997 11.202, 475.273 10.842, 459 12.500 M 524 77.192 C 516.390 82.716, 508.463 86.586, 499.829 88.990 C 490.714 91.529, 470.087 95.753, 462.893 96.555 C 454.223 97.521, 423.153 105.579, 405.653 111.401 C 385.571 118.082, 379.554 120.368, 364.477 127.040 C 330.660 142.005, 298.471 162.896, 265.290 191.415 C 254.776 200.452, 230.807 226.035, 219.303 240.500 C 198.810 266.267, 177.108 303.172, 165.788 331.500 C 157.926 351.172, 146.653 390.395, 144.087 407 C 143.449 411.125, 142.490 417.200, 141.954 420.500 C 138.293 443.061, 137.262 475.833, 139.469 499.500 C 144.044 548.556, 153.614 584.696, 172.040 622.500 C 186.075 651.294, 203.755 675.671, 229 701.037 C 258.429 730.608, 290.408 749.571, 329.498 760.633 C 351.094 766.745, 355.916 767.338, 384.500 767.399 C 412.031 767.458, 418.067 766.855, 435 762.351 C 447.250 759.093, 448.202 758.689, 444.500 758.322 C 417.596 755.657, 403.620 752.597, 386 745.516 C 364.640 736.931, 349.348 727.621, 332.500 712.943 C 307.272 690.965, 290.348 669.156, 275.894 639.996 C 264.977 617.973, 259.962 604.172, 253.186 577.500 C 246.524 551.276, 243.397 529.737, 242.443 503.500 C 242.183 496.350, 241.765 487.646, 241.514 484.158 C 240.996 476.948, 243.315 443.962, 245.498 427.500 C 246.300 421.450, 247.201 414.475, 247.499 412 C 248.507 403.639, 257.005 371.594, 262.085 357 C 264.861 349.025, 271.095 334.396, 275.938 324.491 C 301.546 272.116, 341.657 229.129, 389.192 203.116 C 403.977 195.025, 430.132 185.082, 442.279 182.934 C 460.684 179.680, 479.855 179.921, 490.500 183.539 C 505.225 188.545, 518.601 202.748, 527.428 222.750 C 528.460 225.087, 529.735 227, 530.262 227 C 530.872 227, 530.955 199.043, 530.492 150.250 C 530.091 108.037, 529.704 73.432, 529.632 73.350 C 529.559 73.267, 527.025 74.996, 524 77.192 M 582.621 81.861 C 585 91.297, 588.160 114.531, 590.189 137.500 C 591.727 154.912, 591.712 226.841, 590.167 247 C 587.965 275.719, 584.911 295.630, 578.011 326.247 C 572.614 350.200, 572.247 348.497, 583.500 351.760 C 596.340 355.483, 604.116 356.504, 618.500 356.356 C 673.294 355.792, 725.036 327.605, 751.914 283.678 C 754.254 279.853, 754.349 277.446, 752.496 269 C 749.875 257.055, 748.480 213.186, 749.905 187.500 C 751.311 162.152, 751.963 157.163, 757.217 131.500 C 759.469 120.500, 761.507 109.881, 761.746 107.902 L 762.181 104.304 749.341 99.737 C 730.246 92.946, 729.029 92.578, 709.260 87.619 C 664.368 76.358, 639.877 73.024, 601.944 73.009 L 580.388 73 582.621 81.861 M 839.530 164.095 C 839.991 164.868, 842.934 168.425, 846.070 172 C 853.577 180.558, 877.998 213.480, 885.138 224.667 C 892.065 235.520, 901.390 252.505, 907.007 264.500 C 917.337 286.559, 926.546 308.435, 930.160 319.500 C 935.920 337.132, 943.557 367.831, 945.459 381 C 946.373 387.325, 947.533 394.300, 948.036 396.500 C 951.312 410.823, 953.389 450.501, 952.033 472.833 C 948.503 530.962, 937.935 576.302, 916.684 624.500 C 884.314 697.913, 836.313 758.850, 772.092 808.058 C 754.990 821.162, 743.703 828.988, 727.801 838.766 C 723.566 841.370, 715.016 846.624, 708.801 850.443 C 678.820 868.862, 625.334 893.100, 588.500 904.959 C 571.231 910.519, 536.500 919.569, 528.884 920.494 C 526.473 920.786, 518.200 922.161, 510.500 923.549 C 455.541 933.452, 383.170 933.002, 331.619 922.435 C 314.187 918.862, 313.641 919.366, 328.500 925.312 C 333.450 927.292, 339.465 929.868, 341.867 931.036 C 344.269 932.204, 347.148 933.336, 348.264 933.551 C 352.551 934.376, 357.827 936.276, 367 940.297 C 372.882 942.875, 396.734 949.766, 411 953.009 C 448.563 961.547, 471.680 964.003, 514.357 963.991 C 546.346 963.983, 562.507 963.088, 576.500 960.553 C 580.900 959.755, 587.650 958.600, 591.500 957.986 C 619.719 953.486, 659.329 942.574, 691.500 930.439 C 695.350 928.987, 700.750 926.975, 703.500 925.969 C 709.181 923.890, 727.023 915.628, 744 907.214 C 791.584 883.632, 842.422 843.993, 876.581 803.840 C 900.374 775.871, 922.377 744.250, 936.312 718 C 938.501 713.875, 942.702 706.108, 945.646 700.739 C 948.591 695.371, 951 690.718, 951 690.401 C 951 690.083, 952.279 687.051, 953.843 683.662 C 955.406 680.273, 959.498 670.075, 962.935 661 C 966.372 651.925, 969.975 642.475, 970.942 640 C 971.909 637.525, 973.488 632.800, 974.452 629.500 C 975.416 626.200, 977.462 619.450, 978.998 614.500 C 980.534 609.550, 982.774 601.225, 983.974 596 C 985.175 590.775, 986.783 583.800, 987.547 580.500 C 990.030 569.772, 993.475 541.615, 995.011 519.500 C 997.802 479.287, 994.123 428.866, 985.999 396 C 984.436 389.675, 982.851 382.925, 982.476 381 C 981.146 374.151, 971.809 345.999, 970.039 343.500 C 969.650 342.950, 968.301 339.125, 967.042 335 C 965.783 330.875, 964.418 327.050, 964.009 326.500 C 963.600 325.950, 962.270 322.800, 961.054 319.500 C 958.408 312.324, 944.232 284.713, 937.437 273.500 C 926.109 254.807, 908.978 230.944, 895.644 215.284 C 884.818 202.569, 857.545 176.481, 846 167.797 C 839.693 163.053, 838.499 162.370, 839.530 164.095 M 760.100 292.811 C 759.916 295.225, 748.577 310.696, 741.607 318.043 C 732.544 327.597, 722.721 335.747, 710.941 343.490 C 699.009 351.332, 692.112 354.834, 678.322 360.048 C 655.180 368.800, 638.604 371.556, 614.108 370.727 C 597.642 370.170, 589.166 368.528, 576.154 363.373 C 572.663 361.991, 569.513 361.153, 569.154 361.513 C 568.794 361.873, 568.500 364.436, 568.500 367.211 C 568.500 372.042, 568.725 372.456, 573.836 377.034 C 576.771 379.662, 581.784 383.205, 584.976 384.907 C 591.257 388.254, 592.508 388.632, 591.405 386.845 C 590.959 386.124, 591.131 385.963, 591.862 386.415 C 592.506 386.813, 592.797 387.520, 592.509 387.986 C 592.220 388.453, 594.125 389.504, 596.742 390.323 C 618.755 397.211, 642.416 396.207, 668.974 387.256 C 693.029 379.148, 708.767 369.231, 728.065 350.021 C 739.434 338.705, 747.224 328.374, 754.121 315.466 C 759.735 304.958, 762.007 297.783, 760.919 294 C 760.523 292.625, 760.155 292.090, 760.100 292.811 M 766.530 315.250 C 762.312 325.274, 760.896 328.136, 757.006 334.500 C 745.158 353.881, 727.829 371.892, 709.763 383.603 C 694.418 393.550, 672.182 403.078, 656 406.640 C 652.425 407.427, 648.600 408.285, 647.500 408.548 C 639.419 410.478, 617.018 410.478, 606 408.548 C 590.772 405.881, 573.826 397.158, 565.111 387.502 C 562.123 384.192, 561.607 383.950, 560.761 385.463 C 559.349 387.986, 560.739 395.717, 563.735 402 C 567.653 410.220, 576.054 417.896, 587.169 423.413 C 598.642 429.107, 604.065 430.583, 619.279 432.151 C 638.515 434.134, 659.595 430.960, 679.013 423.157 C 683.131 421.502, 686.376 419.631, 686.225 419 C 686.074 418.368, 686.378 418.116, 686.900 418.438 C 688.041 419.143, 693 417.031, 693 415.839 C 693 415.378, 693.806 415, 694.791 415 C 696.867 415, 709.979 406.916, 716.007 401.919 C 745.660 377.340, 764.311 348.100, 768.915 318.972 C 769.429 315.726, 769.347 314.285, 768.675 314.701 C 768.064 315.078, 767.914 314.666, 768.299 313.664 C 769.490 310.560, 767.906 311.980, 766.530 315.250 M 779.541 330.524 C 776.876 340.195, 773.024 350.995, 769.517 358.630 C 766.354 365.514, 753.370 386.077, 749.197 390.811 C 731.915 410.414, 717.415 421.566, 694.500 432.877 C 685.971 437.087, 682.283 438.527, 672.187 441.588 C 671.464 441.807, 671.127 442.397, 671.438 442.900 C 671.749 443.402, 671.145 443.589, 670.097 443.315 C 669.049 443.041, 664.661 443.723, 660.346 444.831 C 650.378 447.390, 645.098 447.943, 629.279 448.087 C 614.792 448.219, 612.278 447.878, 598.876 443.963 C 588.331 440.883, 577.083 435.624, 572.134 431.459 C 569.501 429.244, 568.700 429.004, 567.438 430.052 C 566.242 431.044, 565.656 431.054, 564.708 430.098 C 563.762 429.145, 563.858 429.018, 565.149 429.509 C 568.393 430.743, 567.847 428.256, 563.921 423.915 C 561.724 421.487, 558.645 417.323, 557.077 414.661 C 555.510 412, 553.948 410.276, 553.605 410.829 C 553.263 411.383, 552.466 417.836, 551.834 425.168 C 551.203 432.501, 550.582 438.637, 550.456 438.804 C 550.329 438.971, 548.712 438.185, 546.863 437.058 C 542.210 434.221, 538.607 434.413, 536.073 437.635 C 532.171 442.595, 534.531 448.016, 540.579 447.985 C 542.598 447.974, 543.081 447.704, 542.143 447.110 C 541.292 446.570, 541.165 446.016, 541.803 445.622 C 543.056 444.847, 546 445.889, 546 447.107 C 546 447.598, 546.900 448, 548 448 C 549.887 448, 550 448.666, 549.999 459.750 C 549.998 474.685, 545.678 541.432, 543.058 567 C 538.455 611.904, 535.780 632.696, 531.542 656.500 C 530.661 661.450, 529.489 668.649, 528.938 672.498 C 528.388 676.347, 527.109 682.422, 526.098 685.998 C 525.087 689.574, 523.276 696.100, 522.075 700.500 C 512.979 733.806, 502.273 758.002, 489.617 773.853 C 472.100 795.793, 454.148 806.668, 421.500 815.117 C 406.300 819.051, 379.810 823.146, 365.886 823.714 C 344.630 824.582, 333.004 822.362, 313.500 813.713 C 306.330 810.533, 302.939 809.623, 296.819 809.237 C 290.118 808.813, 288.680 809.035, 285.538 810.976 C 278.498 815.327, 275.963 824.241, 278.452 835.889 C 281.492 850.113, 291.373 863.535, 305.759 872.979 C 320.643 882.750, 335.211 887.166, 352.500 887.146 C 362.510 887.134, 365.299 886.656, 393.500 880.120 C 417.214 874.624, 428.954 874.142, 470 876.980 C 499.411 879.014, 516.479 877.883, 533.500 872.773 C 554.057 866.602, 571.821 854.332, 584.327 837.665 C 593.016 826.086, 602.464 809.504, 607.165 797.581 C 608.232 794.875, 609.925 790.825, 610.927 788.581 C 611.930 786.336, 615.307 777.975, 618.433 770 C 621.558 762.025, 624.948 753.700, 625.966 751.500 C 626.983 749.300, 629.384 743.675, 631.301 739 C 651.385 690.018, 680.810 644.701, 712.142 614.500 C 723.525 603.527, 743.928 586.148, 751 581.400 C 753.475 579.739, 759.794 575.481, 765.041 571.940 C 770.289 568.398, 777.838 563.475, 781.816 561 C 815.448 540.075, 820.336 536.528, 833.489 523.500 C 845.640 511.464, 852.821 500.542, 856.830 488 C 862.107 471.492, 860.893 449.511, 853.953 435.908 C 845.829 419.983, 840.645 413.453, 802.250 370.788 C 798.813 366.968, 796 363.482, 796 363.043 C 796 362.603, 797.350 361.683, 799 361 C 801.760 359.857, 802.473 358.860, 802.094 356.676 C 802.015 356.222, 802.364 356.107, 802.870 356.420 C 804.314 357.312, 805.040 354.236, 804.020 351.552 C 802.106 346.517, 795.431 345.479, 791.332 349.577 C 788.132 352.777, 787.208 351.823, 787.755 345.883 L 788.180 341.266 792.542 341.758 C 796.399 342.192, 797.257 341.896, 799.952 339.202 C 804.021 335.133, 804.077 331.067, 800.096 328.716 C 794.870 325.629, 790.473 327.342, 788.359 333.289 L 787.217 336.500 785.617 333 C 784.738 331.075, 783.381 328.386, 782.603 327.024 C 781.210 324.586, 781.162 324.641, 779.541 330.524 M 792.310 329.431 C 791.656 330.177, 791.393 331.060, 791.727 331.393 C 792.060 331.727, 791.722 332, 790.976 332 C 790.097 332, 790.302 332.518, 791.559 333.468 C 794.258 335.510, 796.089 335.402, 795.275 333.250 C 794.695 331.719, 794.855 331.741, 796.556 333.429 C 798.318 335.177, 798.530 335.199, 798.826 333.666 C 799.005 332.736, 799.567 332.233, 800.076 332.547 C 801.602 333.490, 801.117 331.260, 799.429 329.571 C 797.516 327.659, 793.928 327.589, 792.310 329.431 M 800.661 335.440 C 800.303 336.373, 799.381 336.742, 798.288 336.389 C 796.797 335.907, 796.749 335.987, 798 336.870 C 799.098 337.644, 799.886 337.542, 800.940 336.488 C 801.733 335.696, 802.126 334.792, 801.814 334.481 C 801.502 334.169, 800.984 334.601, 800.661 335.440 M 786.667 337.667 C 786.300 338.033, 786 338.798, 786 339.367 C 786 339.993, 786.466 339.934, 787.183 339.217 C 787.834 338.566, 788.134 337.801, 787.850 337.517 C 787.566 337.233, 787.033 337.300, 786.667 337.667 M 780 341.500 C 780 343.425, 780.360 345, 780.799 345 C 781.239 345, 781.415 343.425, 781.190 341.500 C 780.965 339.575, 780.605 338, 780.391 338 C 780.176 338, 780 339.575, 780 341.500 M 783.702 342.333 C 783.421 343.067, 783.780 343.667, 784.500 343.667 C 785.220 343.667, 785.579 343.067, 785.298 342.333 C 785.016 341.600, 784.657 341, 784.500 341 C 784.343 341, 783.984 341.600, 783.702 342.333 M 480.168 349.948 C 478.488 354.767, 471.547 363.390, 467.666 365.481 C 465.677 366.552, 463.846 367.958, 463.598 368.605 C 463.350 369.252, 464.853 373.094, 466.939 377.141 C 473.449 389.773, 478.264 408.098, 480.104 427.250 C 480.778 434.262, 481.632 440, 482.002 440 C 482.372 440, 483.226 434.038, 483.901 426.750 C 485.669 407.647, 490.139 391.018, 497.041 377.860 C 498.669 374.758, 499.982 371.833, 499.960 371.360 C 499.938 370.887, 497.789 368.820, 495.184 366.767 C 490.813 363.321, 487.189 357.756, 484.103 349.750 C 482.734 346.200, 481.452 346.264, 480.168 349.948 M 490.226 351.250 C 490.855 353.069, 495.014 358.076, 499.671 362.619 C 507.993 370.739, 507.993 370.739, 506.231 373.119 C 500.483 380.887, 492.395 402.976, 490.532 416 C 490.256 417.925, 489.585 421.300, 489.039 423.500 C 487.779 428.584, 487.744 444.450, 489 441.335 C 489.480 440.144, 490.618 432.944, 491.529 425.335 C 493.633 407.761, 493.630 407.787, 494.334 406 C 494.659 405.175, 496.029 401.511, 497.377 397.859 C 500.132 390.395, 508.666 373.324, 510.079 372.451 C 512.212 371.133, 510.823 367.913, 507.110 365.569 C 502.339 362.558, 491 351.115, 491 349.313 C 491 348.591, 490.573 348, 490.052 348 C 489.490 348, 489.562 349.325, 490.226 351.250 M 796 359.059 C 796 359.641, 796.450 359.840, 797 359.500 C 797.550 359.160, 798 358.684, 798 358.441 C 798 358.198, 797.550 358, 797 358 C 796.450 358, 796 358.477, 796 359.059 M 724.769 374.789 C 723.669 376.122, 723.767 376.190, 725.500 375.299 C 726.600 374.733, 728.021 374.458, 728.658 374.688 C 729.295 374.918, 730.075 374.688, 730.390 374.178 C 731.371 372.591, 726.110 373.162, 724.769 374.789 M 716 381.500 C 712.979 384.716, 713.856 384.716, 717.594 381.501 C 719.193 380.127, 720.016 379.002, 719.424 379.001 C 718.833 379.001, 717.292 380.125, 716 381.500 M 710 385 C 710 385.550, 710.477 386, 711.059 386 C 711.641 386, 711.840 385.550, 711.500 385 C 711.160 384.450, 710.684 384, 710.441 384 C 710.198 384, 710 384.450, 710 385 M 605 389 C 603.787 389.784, 603.931 389.972, 605.750 389.985 C 606.987 389.993, 608 389.550, 608 389 C 608 387.747, 606.939 387.747, 605 389 M 708.557 389.582 C 707.491 390.362, 707.041 390.993, 707.559 390.985 C 708.941 390.962, 711.520 389.186, 710.969 388.636 C 710.710 388.376, 709.624 388.802, 708.557 389.582 M 702.441 390.442 C 700.537 391.856, 700.540 391.881, 702.583 391.742 C 703.729 391.663, 704.667 391.015, 704.667 390.300 C 704.667 388.705, 704.789 388.698, 702.441 390.442 M 562.079 391.583 C 562.127 392.748, 562.364 392.985, 562.683 392.188 C 562.972 391.466, 562.936 390.603, 562.604 390.271 C 562.272 389.939, 562.036 390.529, 562.079 391.583 M 640.813 392.683 C 641.534 392.972, 642.397 392.936, 642.729 392.604 C 643.061 392.272, 642.471 392.036, 641.417 392.079 C 640.252 392.127, 640.015 392.364, 640.813 392.683 M 719.601 392.836 C 719.347 393.248, 720.007 393.650, 721.069 393.730 C 723.366 393.903, 723.568 393.432, 721.532 392.651 C 720.725 392.341, 719.856 392.424, 719.601 392.836 M 741.500 401 C 741.160 401.550, 741.344 402, 741.910 402 C 742.475 402, 742.684 402.788, 742.374 403.750 C 741.929 405.136, 742.020 405.207, 742.813 404.091 C 743.364 403.316, 743.583 402.078, 743.300 401.341 C 742.686 399.738, 742.322 399.670, 741.500 401 M 762.759 405.420 C 763.072 405.926, 762.654 406.081, 761.831 405.765 C 761.007 405.449, 760.266 405.710, 760.183 406.345 C 760.101 406.980, 759.751 408.957, 759.405 410.737 C 758.466 415.576, 759.614 418.563, 763.052 420.228 C 767.177 422.226, 772.095 421.182, 773.725 417.961 C 776.994 411.500, 773.689 405.415, 766.603 404.851 C 764.083 404.651, 762.435 404.895, 762.759 405.420 M 637 412.383 C 637 412.594, 637.901 413.002, 639.001 413.290 C 640.102 413.578, 640.751 413.405, 640.442 412.907 C 639.904 412.036, 637 411.594, 637 412.383 M 645.813 413.683 C 646.534 413.972, 647.397 413.936, 647.729 413.604 C 648.061 413.272, 647.471 413.036, 646.417 413.079 C 645.252 413.127, 645.015 413.364, 645.813 413.683 M 529.442 418.387 C 525.572 423.911, 529.524 430.309, 536.488 429.796 C 539.906 429.544, 540.747 429.006, 542.167 426.161 C 544.074 422.343, 543.058 417.467, 540.166 416.558 C 536.431 415.383, 530.883 416.329, 529.442 418.387 M 747 417.387 C 747 417.599, 748.350 417.971, 750 418.213 C 751.650 418.455, 753 418.282, 753 417.827 C 753 417.372, 751.650 417, 750 417 C 748.350 417, 747 417.174, 747 417.387 M 539.564 420.707 C 539.022 422.132, 539.136 422.247, 540.124 421.267 C 540.808 420.588, 541.115 419.781, 540.807 419.474 C 540.499 419.166, 539.940 419.721, 539.564 420.707 M 586 420 C 586 420.550, 586.702 421, 587.559 421 C 588.416 421, 588.840 420.550, 588.500 420 C 588.160 419.450, 587.459 419, 586.941 419 C 586.423 419, 586 419.450, 586 420 M 745.443 420.418 C 744.376 421.198, 743.760 422.094, 744.074 422.408 C 744.782 423.116, 749.981 420.781, 749.992 419.750 C 750.005 418.529, 747.529 418.893, 745.443 420.418 M 756.750 420.662 C 757.438 420.940, 758.563 420.940, 759.250 420.662 C 759.938 420.385, 759.375 420.158, 758 420.158 C 756.625 420.158, 756.063 420.385, 756.750 420.662 M 716.441 422.450 C 714.566 423.851, 714.577 423.881, 716.750 423.334 C 717.987 423.022, 719 422.369, 719 421.883 C 719 420.693, 718.705 420.759, 716.441 422.450 M 748.003 424.723 C 746.331 426.849, 746.005 428.219, 746.515 430.973 C 747.479 436.171, 749.583 438, 754.598 438 C 759.642 438, 762 435.525, 762 430.230 C 762 422.905, 752.403 419.130, 748.003 424.723 M 558.635 424.491 C 558.953 425.321, 559.642 426, 560.166 426 C 560.690 426, 560.859 426.419, 560.543 426.931 C 560.226 427.443, 560.494 428.187, 561.138 428.585 C 561.923 429.070, 562.039 428.872, 561.490 427.985 C 560.896 427.023, 561.128 426.835, 562.336 427.299 C 564.738 428.220, 564.399 427.671, 561.028 425.179 C 558.965 423.653, 558.233 423.443, 558.635 424.491 M 605.500 425 C 605.840 425.550, 606.316 426, 606.559 426 C 606.802 426, 607 425.550, 607 425 C 607 424.450, 606.523 424, 605.941 424 C 605.359 424, 605.160 424.450, 605.500 425 M 602 427 C 602 427.550, 602.477 428, 603.059 428 C 603.641 428, 603.840 427.550, 603.500 427 C 603.160 426.450, 602.684 426, 602.441 426 C 602.198 426, 602 426.450, 602 427 M 605 428 C 605 428.550, 605.477 429, 606.059 429 C 606.641 429, 606.840 428.550, 606.500 428 C 606.160 427.450, 605.684 427, 605.441 427 C 605.198 427, 605 427.450, 605 428 M 553.854 434.632 C 554.136 438.181, 554.473 438.852, 555.530 437.975 C 556.532 437.144, 556.604 436.162, 555.828 433.937 C 554.259 429.436, 553.462 429.716, 553.854 434.632 M 620.750 430.662 C 621.438 430.940, 622.563 430.940, 623.250 430.662 C 623.938 430.385, 623.375 430.158, 622 430.158 C 620.625 430.158, 620.063 430.385, 620.750 430.662 M 735.166 432.876 C 734.109 433.546, 734.190 433.859, 735.559 434.384 C 736.509 434.749, 737.522 434.811, 737.810 434.524 C 738.098 434.236, 737.782 434, 737.108 434 C 736.434 434, 736.160 433.550, 736.500 433 C 737.248 431.790, 736.927 431.760, 735.166 432.876 M 742 433 C 742 433.550, 742.477 434, 743.059 434 C 743.641 434, 743.840 433.550, 743.500 433 C 743.160 432.450, 742.684 432, 742.441 432 C 742.198 432, 742 432.450, 742 433 M 739 434.059 C 739 434.641, 739.450 434.840, 740 434.500 C 740.550 434.160, 741 433.684, 741 433.441 C 741 433.198, 740.550 433, 740 433 C 739.450 433, 739 433.477, 739 434.059 M 731.813 436.683 C 732.534 436.972, 733.397 436.936, 733.729 436.604 C 734.061 436.272, 733.471 436.036, 732.417 436.079 C 731.252 436.127, 731.015 436.364, 731.813 436.683 M 741.750 436.662 C 742.438 436.940, 743.563 436.940, 744.250 436.662 C 744.938 436.385, 744.375 436.158, 743 436.158 C 741.625 436.158, 741.063 436.385, 741.750 436.662 M 538.541 438.753 C 537.654 441.066, 537.857 441.192, 541.250 440.415 C 543.038 440.005, 545.355 439.722, 546.399 439.784 C 547.843 439.871, 548.019 439.619, 547.135 438.735 C 545.436 437.036, 539.195 437.049, 538.541 438.753 M 734.309 438.788 C 731.802 440.382, 730.110 445.160, 731.116 447.805 C 731.647 449.202, 731.889 450.846, 731.654 451.458 C 730.758 453.795, 741.404 453.849, 743.977 451.521 C 746.919 448.858, 746.799 441.673, 743.777 439.557 C 741.440 437.919, 736.328 437.504, 734.309 438.788 M 669 445 C 669.825 445.533, 670.950 445.969, 671.500 445.969 C 672.050 445.969, 671.825 445.533, 671 445 C 670.175 444.467, 669.050 444.031, 668.500 444.031 C 667.950 444.031, 668.175 444.467, 669 445 M 554.557 449.223 C 552.108 452.719, 552.618 456.772, 555.923 460.077 C 559.228 463.382, 560.861 463.640, 564.979 461.511 C 568.380 459.752, 569.427 457.090, 568.552 452.425 C 567.799 448.414, 565.602 447, 560.122 447 C 557.113 447, 555.725 447.554, 554.557 449.223 M 718.370 449.449 C 714.759 451.011, 714.476 451.379, 713.544 455.722 C 712.976 458.371, 713.303 459.394, 715.381 461.472 C 720.513 466.604, 729 463.550, 729 456.572 C 729 450.388, 723.978 447.023, 718.370 449.449 M 674.446 454.750 C 676.700 475.553, 677.061 480.730, 676.511 484.358 C 675.488 491.093, 669.917 509.106, 667.188 514.500 C 665.101 518.625, 664.645 520.988, 664.582 528 C 664.516 535.376, 664.860 537.173, 667.189 541.590 C 672.416 551.507, 681.439 556.940, 694 557.735 C 701.175 558.189, 701.823 558.042, 708.955 554.355 C 717.700 549.833, 722.166 544.676, 724.606 536.282 C 727.965 524.730, 723.614 514.133, 707.865 495.500 C 694.101 479.216, 684.278 465.790, 678.418 455.251 C 676.813 452.364, 675.147 450.002, 674.716 450.001 C 674.284 450, 674.163 452.137, 674.446 454.750 M 476.888 453.500 C 473.470 455.358, 471.532 460.234, 471.796 466.312 C 472.155 474.568, 478.081 480.034, 485.140 478.622 C 494.888 476.672, 497.373 459.577, 488.783 453.561 C 486.034 451.635, 480.373 451.606, 476.888 453.500 M 683.638 457.500 C 683.955 458.325, 684.391 459, 684.607 459 C 684.823 459, 685 458.325, 685 457.500 C 685 456.675, 684.564 456, 684.031 456 C 683.499 456, 683.322 456.675, 683.638 457.500 M 700 457.709 C 696.632 458.948, 695 461.378, 695 465.155 C 695 470.949, 698.197 473.608, 704.500 473.055 C 710.106 472.563, 712.107 462.802, 707.365 459.073 C 704.742 457.009, 702.855 456.660, 700 457.709 M 499.490 460 C 500.832 466.563, 501.015 469.852, 500.267 473.966 C 499.600 477.639, 498.666 479.034, 495.004 481.827 C 490.833 485.008, 490.210 485.183, 485.133 484.586 C 480.342 484.023, 479.860 484.126, 480.982 485.478 C 482.452 487.250, 490.326 487.319, 493.489 485.588 C 501.077 481.437, 504.594 469.340, 500.639 461 C 499.433 458.457, 499.119 458.184, 499.490 460 M 572.452 462.646 C 568.564 466.841, 569.274 472.056, 574.072 474.537 C 578.014 476.576, 580.480 476.367, 583.389 473.750 C 585.812 471.570, 586.356 469.887, 586.115 465.321 C 585.813 459.599, 576.895 457.852, 572.452 462.646 M 686.086 463 C 686.055 463.825, 686.467 465.175, 687 466 C 688.181 467.828, 688.181 466.249, 687 463.500 C 686.433 462.181, 686.122 462.011, 686.086 463 M 689.564 466.293 C 689.940 467.279, 690.499 467.834, 690.807 467.526 C 691.115 467.219, 690.808 466.412, 690.124 465.733 C 689.136 464.753, 689.022 464.868, 689.564 466.293 M 691.500 470 C 691.840 470.550, 692.316 471, 692.559 471 C 692.802 471, 693 470.550, 693 470 C 693 469.450, 692.523 469, 691.941 469 C 691.359 469, 691.160 469.450, 691.500 470 M 590.557 472.223 C 587.981 475.900, 588.980 482.951, 592.400 485.235 C 594.633 486.726, 601.650 486.044, 603.345 484.171 C 606.119 481.106, 605.076 473.086, 601.600 470.765 C 600.995 470.361, 598.613 470.024, 596.307 470.015 C 593.096 470.004, 591.748 470.521, 590.557 472.223 M 657.733 473.750 C 655.378 476.363, 654.739 480.212, 656.106 483.539 C 656.775 485.168, 657.290 486.725, 657.250 487 C 657.100 488.025, 666.160 487.985, 668.090 486.952 C 672.700 484.485, 672.885 475.180, 668.364 473.120 C 664.693 471.447, 659.532 471.753, 657.733 473.750 M 612.573 476.336 C 607.247 481.662, 610.608 490.018, 618.064 489.985 C 622.061 489.967, 623.274 489.311, 624.850 486.316 C 627.721 480.861, 624.935 475.329, 618.823 474.351 C 615.760 473.860, 614.718 474.192, 612.573 476.336 M 634.174 477.314 C 631.195 480.486, 631.261 485.957, 634.314 488.826 C 637.562 491.876, 644.291 491.850, 646.443 488.777 C 652.243 480.497, 641.028 470.019, 634.174 477.314 M 687.533 494.691 C 687.141 496.786, 684.754 503.450, 682.228 509.500 C 675.593 525.389, 676.086 533.593, 684.082 540.360 C 691.115 546.312, 706.654 544.437, 710.405 537.184 C 714.036 530.162, 712.670 520.158, 707.102 512.989 C 699.623 503.362, 692.834 495.154, 690.725 493.191 L 688.245 490.881 687.533 494.691 M 688.282 510.250 C 684.512 520.171, 683.543 525.483, 684.904 528.769 C 685.581 530.403, 687.251 532.249, 688.615 532.870 C 698.417 537.337, 704.157 528.132, 698.605 516.849 C 695.750 511.045, 691.866 505.100, 690.889 505.039 C 690.553 505.017, 689.380 507.363, 688.282 510.250 M 684.404 508.389 C 683.701 510.221, 684.676 512.029, 686.309 511.921 C 687.168 511.864, 687.151 511.701, 686.250 511.338 C 685.563 511.060, 685.007 510.083, 685.015 509.167 C 685.029 507.725, 685.162 507.703, 686 509 C 686.582 509.901, 686.975 510.025, 686.985 509.309 C 687.009 507.418, 685.045 506.718, 684.404 508.389 M 680.079 520.250 C 679.984 523.550, 680.541 523.726, 682.065 520.879 C 682.729 519.637, 682.779 519.018, 682.185 519.386 C 681.627 519.730, 680.943 519.447, 680.664 518.756 C 680.386 518.065, 680.122 518.737, 680.079 520.250 M 701.439 531.794 C 701.842 532.505, 701.628 533.743, 700.964 534.544 C 700.077 535.612, 700.062 536, 700.909 536 C 702.679 536, 703.425 533.013, 701.986 531.683 C 700.991 530.763, 700.870 530.788, 701.439 531.794 M 682.965 534.542 C 682.088 535.598, 682.009 536.409, 682.712 537.112 C 683.416 537.816, 683.895 537.329, 684.231 535.570 C 684.804 532.573, 684.682 532.473, 682.965 534.542 M 706.031 533.500 C 706.031 534.050, 706.467 535.175, 707 536 C 707.533 536.825, 707.969 537.050, 707.969 536.500 C 707.969 535.950, 707.533 534.825, 707 534 C 706.467 533.175, 706.031 532.950, 706.031 533.500 M 685.382 535.191 C 684.977 535.846, 685.150 536.550, 685.767 536.756 C 686.383 536.961, 686.616 537.888, 686.284 538.815 C 685.641 540.612, 685.788 540.514, 687.952 537.694 C 688.715 536.700, 688.925 535.966, 688.419 536.062 C 686.334 536.459, 685.597 535.907, 687 535 C 687.901 534.418, 688.025 534.025, 687.309 534.015 C 686.654 534.007, 685.787 534.536, 685.382 535.191 M 690.083 540.365 C 690.313 540.565, 691.468 541.232, 692.650 541.846 C 694.360 542.735, 694.916 542.660, 695.369 541.482 C 695.796 540.367, 695.161 540, 692.802 540 C 691.078 540, 689.854 540.164, 690.083 540.365 M 696.658 541.449 C 696.286 542.418, 696.582 542.714, 697.551 542.342 C 699.133 541.735, 699.545 540, 698.107 540 C 697.616 540, 696.964 540.652, 696.658 541.449 M 461.250 1021.751 C 154.617 1021.918, 0 1022.337, 0 1023.002 C -0 1024.390, 1024.204 1023.888, 1024.667 1022.500 C 1024.886 1021.842, 1007.472 1021.500, 973.750 1021.500 C 945.563 1021.500, 714.938 1021.613, 461.250 1021.751" stroke="none" fill="black" fill-rule="evenodd"/>
</svg>